<svg xmlns="http://www.w3.org/2000/svg" viewBox="0 0 32 32" x="0px" y="0px" fill='#fff'><g><path d="M21.15,5.76,19.74,4.35a.5.5,0,0,0-.71,0L17.25,6.13A2.42,2.42,0,0,0,16.5,6h-8A2.5,2.5,0,0,0,6,8.5v8A2.5,2.5,0,0,0,8.5,19h8A2.5,2.5,0,0,0,19,16.5V8.62l2.15-2.16A.5.5,0,0,0,21.15,5.76ZM18,16.5A1.5,1.5,0,0,1,16.5,18h-8A1.5,1.5,0,0,1,7,16.5v-8A1.5,1.5,0,0,1,8.5,7h7.88l-5.77,5.77a.5.5,0,0,0-.15.33l-.06,1.48a.5.5,0,0,0,.5.52h0L12.4,15a.5.5,0,0,0,.33-.15L18,9.63ZM12.16,14l-.74,0,0-.74,6.28-6.27h0l1.65-1.65.7.7Z"/></g></svg>