<svg xmlns="http://www.w3.org/2000/svg" xmlns:xlink="http://www.w3.org/1999/xlink" version="1.1" x="0px" y="0px" viewBox="0 0 48 60" enable-background="new 0 0 48 48" xml:space="preserve" fill='#fff'><g><path d="M11,17.5543l6.4258-4.0162c1.0059-0.6284,1.5479-1.7935,1.3799-2.9688L18.1528,6H33v20h2V6c0-1.103-0.897-2-2-2H16.4258   L9,16.7295V40c0,1.103,0.897,2,2,2h14v-2H11V17.5543z M16.3662,11.8418l-3.4616,2.1635l3.5119-6.0206l0.4097,2.8673   C16.8818,11.2441,16.7012,11.6323,16.3662,11.8418z M34,28c-4.4111,0-8,3.5889-8,8s3.5889,8,8,8s8-3.5889,8-8S38.4111,28,34,28z    M34,42c-3.3086,0-6-2.6914-6-6s2.6914-6,6-6s6,2.6914,6,6S37.3086,42,34,42z M35,35h3v2h-3v3h-2v-3h-3v-2h3v-3h2V35z"/></g></svg>