<svg xmlns="http://www.w3.org/2000/svg" viewBox="0 0 32 48" x="0px" y="0px" fill='#fff'><g><path d="M29.1211,7.707,24.293,2.8789A2.98,2.98,0,0,0,22.1714,2H5A3.0033,3.0033,0,0,0,2,5V27a3.0033,3.0033,0,0,0,3,3H27a3.0033,3.0033,0,0,0,3-3V9.8286A2.98,2.98,0,0,0,29.1211,7.707ZM20,4V7a1,1,0,0,1-1,1H13a1,1,0,0,1-1-1V4ZM9,28V20a1,1,0,0,1,1-1H22a1,1,0,0,1,1,1v8Zm19-1a1.0013,1.0013,0,0,1-1,1H25V20a3,3,0,0,0-3-3H10a3,3,0,0,0-3,3v8H5a1.0013,1.0013,0,0,1-1-1V5A1.0013,1.0013,0,0,1,5,4h5V7a3,3,0,0,0,3,3h6a3,3,0,0,0,3-3V4a1.0865,1.0865,0,0,1,.8789.293L27.707,9.1211A.9942.9942,0,0,1,28,9.8286ZM15,5h2a1,1,0,0,1,0,2H15A1,1,0,0,1,15,5Zm6,18H11a1,1,0,0,1,0-2H21A1,1,0,0,1,21,23Zm0,3H11a1,1,0,0,1,0-2H21A1,1,0,0,1,21,26Z"/></g></svg>